<svg xmlns="http://www.w3.org/2000/svg" xmlns:xlink="http://www.w3.org/1999/xlink" width="40" zoomAndPan="magnify" viewBox="0 0 30 30.000001" height="40" preserveAspectRatio="xMidYMid meet" version="1.0"><defs><clipPath id="2c7db4fc4a"><path d="M 14 27 L 15 27 L 15 27.582031 L 14 27.582031 Z M 14 27 " clip-rule="nonzero"/></clipPath><clipPath id="e019071c0a"><path d="M 0.484375 2.902344 L 29.515625 2.902344 L 29.515625 20 L 0.484375 20 Z M 0.484375 2.902344 " clip-rule="nonzero"/></clipPath><clipPath id="4dcb1591cb"><path d="M 4 14 L 26 14 L 26 27.582031 L 4 27.582031 Z M 4 14 " clip-rule="nonzero"/></clipPath></defs><g clip-path="url(#2c7db4fc4a)"><path fill="#272838" d="M 14.089844 27.132812 C 14.421875 27.167969 14.542969 27.75 14.992188 27.480469 C 14.859375 27.800781 14.691406 27.929688 14.433594 27.585938 C 14.320312 27.4375 14.203125 27.285156 14.089844 27.132812 Z M 14.089844 27.132812 " fill-opacity="1" fill-rule="evenodd"/></g><path fill="#272838" d="M 2.789062 8.554688 C 2.78125 8.679688 2.699219 8.707031 2.597656 8.703125 C 2.523438 8.703125 2.4375 8.695312 2.425781 8.601562 C 2.40625 8.484375 2.484375 8.425781 2.582031 8.40625 C 2.6875 8.386719 2.75 8.460938 2.789062 8.554688 Z M 2.789062 8.554688 " fill-opacity="1" fill-rule="evenodd"/><path fill="#272838" d="M 2.082031 8.792969 C 1.996094 8.796875 1.941406 8.765625 1.960938 8.699219 C 1.972656 8.660156 2.039062 8.632812 2.089844 8.617188 C 2.109375 8.613281 2.144531 8.652344 2.171875 8.671875 C 2.140625 8.714844 2.109375 8.757812 2.082031 8.792969 Z M 2.082031 8.792969 " fill-opacity="1" fill-rule="evenodd"/><path fill="#fefefe" d="M 14.730469 23.765625 C 15.015625 24.101562 15.277344 24.390625 15.507812 24.707031 C 15.566406 24.792969 14.773438 25.589844 14.667969 25.574219 C 14.566406 25.558594 13.886719 24.742188 13.9375 24.683594 C 14.183594 24.378906 14.445312 24.089844 14.730469 23.765625 Z M 14.730469 23.765625 " fill-opacity="1" fill-rule="evenodd"/><g clip-path="url(#e019071c0a)"><path fill="#272838" d="M 1.476562 8.941406 C 1.492188 8.957031 1.507812 8.972656 1.523438 8.992188 C 1.515625 8.96875 1.5 8.953125 1.476562 8.941406 Z M 0.484375 8.585938 C 0.5 8.578125 0.515625 8.570312 0.535156 8.558594 C 0.703125 8.402344 0.902344 8.3125 1.125 8.28125 C 1.328125 8.191406 1.554688 8.097656 1.785156 8.003906 C 1.796875 7.996094 1.808594 7.992188 1.820312 7.988281 C 2.644531 7.648438 3.5 7.320312 3.5 7.320312 L 3.519531 7.332031 C 7.195312 5.890625 10.875 4.453125 14.550781 3.007812 C 14.886719 2.875 15.1875 2.875 15.523438 3.007812 C 17.035156 3.613281 18.558594 4.199219 20.070312 4.796875 C 23.101562 5.992188 26.132812 7.191406 29.164062 8.386719 C 29.296875 8.4375 29.457031 8.445312 29.515625 8.609375 C 29.359375 8.6875 29.203125 8.777344 29.039062 8.84375 C 27.066406 9.65625 27.515625 9.101562 27.445312 11.175781 C 27.433594 11.570312 27.519531 11.800781 27.925781 11.988281 C 28.929688 12.449219 29.105469 13.617188 28.34375 14.398438 C 28.3125 14.429688 28.28125 14.460938 28.25 14.492188 C 27.71875 14.691406 27.894531 15.113281 27.992188 15.453125 C 28.308594 16.550781 28.386719 17.671875 28.402344 18.808594 C 28.40625 19.171875 28.253906 19.261719 27.945312 19.261719 C 27.410156 19.257812 26.871094 19.25 26.332031 19.265625 C 25.957031 19.273438 25.839844 19.105469 25.882812 18.753906 C 26.019531 17.613281 26.019531 16.453125 26.355469 15.339844 C 26.46875 14.953125 26.421875 14.695312 26.070312 14.394531 C 25.265625 13.707031 25.503906 12.484375 26.464844 12.039062 C 26.601562 11.972656 26.769531 11.960938 26.863281 11.824219 C 26.863281 11.824219 26.863281 11.824219 26.859375 11.824219 C 26.867188 11.289062 26.851562 10.75 26.894531 10.21875 C 26.9375 9.695312 26.726562 9.734375 26.359375 9.886719 C 25.253906 10.335938 24.144531 10.761719 23.035156 11.199219 C 22.875 11.261719 22.675781 11.273438 22.605469 11.480469 C 23.046875 12.179688 23.25 12.964844 23.421875 13.765625 C 23.484375 14.046875 23.398438 14.246094 23.171875 14.4375 C 20.933594 16.316406 18.402344 17.441406 15.445312 17.464844 C 12.855469 17.484375 10.5 16.652344 8.375 15.238281 C 6.308594 13.863281 6.304688 14.492188 7.324219 11.808594 C 7.460938 11.441406 7.421875 11.332031 7.054688 11.191406 C 5.40625 10.558594 3.769531 9.886719 2.128906 9.230469 C 1.902344 9.214844 1.699219 9.144531 1.527344 8.996094 C 1.296875 8.984375 1.101562 8.890625 0.914062 8.769531 C 0.808594 8.738281 0.703125 8.710938 0.601562 8.683594 C 0.5625 8.660156 0.523438 8.632812 0.484375 8.609375 C 0.492188 8.601562 0.496094 8.59375 0.503906 8.585938 Z M 0.484375 8.585938 " fill-opacity="1" fill-rule="evenodd"/></g><path fill="#0c7489" d="M 22.171875 20.839844 C 21.449219 17.898438 17.269531 17.886719 16.542969 20.839844 L 16.851562 20.839844 C 16.851562 20.839844 16.851562 20.84375 16.851562 20.84375 L 17.722656 20.84375 C 17.722656 20.84375 17.722656 20.84375 17.722656 20.839844 Z M 22.171875 20.839844 " fill-opacity="1" fill-rule="evenodd"/><path fill="#0c7489" d="M 12.625 20.839844 C 11.90625 17.898438 7.722656 17.886719 7 20.839844 L 7.308594 20.839844 C 7.308594 20.839844 7.308594 20.84375 7.308594 20.84375 L 8.175781 20.84375 C 8.175781 20.84375 8.175781 20.84375 8.175781 20.839844 Z M 12.625 20.839844 " fill-opacity="1" fill-rule="evenodd"/><g clip-path="url(#4dcb1591cb)"><path fill="#272838" d="M 11.015625 22.347656 C 11.253906 22.074219 11.5 22.175781 11.75 22.15625 C 12.039062 22.132812 12.328125 22.152344 12.617188 22.152344 C 12.472656 23.28125 11.546875 24.175781 10.378906 24.355469 C 9.203125 24.726562 7.566406 23.910156 7.113281 22.507812 C 7.074219 22.378906 6.964844 22.148438 7.230469 22.164062 C 7.683594 22.183594 8.148438 22.019531 8.585938 22.25 C 9.402344 23.210938 10.210938 23.261719 11.015625 22.347656 Z M 7 20.839844 C 7.722656 17.886719 11.90625 17.898438 12.628906 20.839844 L 8.179688 20.839844 C 8.175781 20.84375 8.175781 20.84375 8.175781 20.84375 L 7.308594 20.84375 C 7.308594 20.84375 7.308594 20.839844 7.308594 20.839844 Z M 12.882812 25.953125 C 13.246094 26.425781 13.667969 26.847656 14.066406 27.292969 C 14.230469 27.378906 14.320312 27.539062 14.4375 27.664062 C 14.640625 27.886719 14.8125 27.808594 14.992188 27.652344 C 15.488281 27.109375 16.007812 26.585938 16.476562 26.019531 C 16.769531 25.664062 17.023438 25.582031 17.484375 25.730469 C 19.699219 26.445312 22.136719 25.5625 23.351562 23.65625 C 24.558594 21.769531 24.324219 19.523438 22.710938 17.730469 C 22.484375 17.476562 22.449219 17.363281 22.773438 17.164062 C 23.535156 16.695312 24.253906 16.15625 24.933594 15.570312 C 25.402344 15.167969 25.476562 14.742188 25.167969 14.386719 C 24.871094 14.035156 24.390625 14.03125 23.941406 14.371094 C 23.433594 14.757812 22.945312 15.167969 22.421875 15.527344 C 19.671875 17.414062 16.710938 18.613281 13.292969 18.179688 C 10.859375 17.867188 8.726562 16.867188 6.910156 15.214844 L 6.914062 15.21875 C 6.550781 15.03125 6.320312 14.695312 6.027344 14.429688 C 5.609375 14.046875 5.148438 14.011719 4.8125 14.339844 C 4.464844 14.683594 4.492188 15.089844 4.917969 15.542969 C 5.398438 16.050781 5.902344 16.535156 6.484375 16.917969 C 6.957031 17.230469 7.066406 17.40625 6.597656 17.886719 C 5.445312 19.070312 5.101562 20.550781 5.46875 22.140625 C 6.140625 25.019531 9.144531 26.640625 12.03125 25.714844 C 12.414062 25.589844 12.636719 25.632812 12.882812 25.953125 Z M 20.558594 22.347656 C 20.796875 22.074219 21.046875 22.175781 21.296875 22.15625 C 21.582031 22.132812 21.871094 22.152344 22.164062 22.152344 C 22.015625 23.28125 21.089844 24.175781 19.921875 24.355469 C 18.746094 24.726562 17.109375 23.910156 16.65625 22.507812 C 16.617188 22.378906 16.507812 22.148438 16.773438 22.164062 C 17.226562 22.183594 17.695312 22.019531 18.132812 22.25 C 18.949219 23.210938 19.757812 23.261719 20.558594 22.347656 Z M 13.9375 24.683594 C 14.183594 24.378906 14.445312 24.089844 14.730469 23.765625 C 15.015625 24.101562 15.277344 24.390625 15.507812 24.707031 C 15.566406 24.792969 14.773438 25.589844 14.667969 25.574219 C 14.566406 25.558594 13.886719 24.742188 13.9375 24.683594 Z M 16.542969 20.839844 C 17.269531 17.886719 21.449219 17.898438 22.171875 20.839844 L 17.722656 20.839844 C 17.722656 20.84375 17.722656 20.84375 17.722656 20.84375 L 16.855469 20.84375 C 16.855469 20.84375 16.855469 20.839844 16.851562 20.839844 Z M 16.542969 20.839844 " fill-opacity="1" fill-rule="evenodd"/></g></svg>